<svg width="1098" height="113" viewBox="0 0 1098 113" fill="none" xmlns="http://www.w3.org/2000/svg">
<path d="M38.5586 111L0.00254985 3.89999H24.4826L52.7876 87.744L81.3986 3.89999H105.726L67.0166 111H38.5586ZM114.874 111V33.888H137.824V111H114.874ZM126.349 25.014C122.269 25.014 118.954 23.841 116.404 21.495C113.854 19.149 112.579 16.191 112.579 12.621C112.579 8.949 113.854 5.94 116.404 3.594C118.954 1.248 122.269 0.0749964 126.349 0.0749964C130.531 0.0749964 133.897 1.248 136.447 3.594C139.099 5.94 140.425 8.949 140.425 12.621C140.425 16.191 139.099 19.149 136.447 21.495C133.897 23.841 130.531 25.014 126.349 25.014ZM187.118 112.836C179.876 112.836 173.603 111.714 168.299 109.47C163.097 107.124 158.966 103.962 155.906 99.984C152.948 96.006 151.265 91.518 150.857 86.52H173.654C174.062 88.254 174.776 89.835 175.796 91.263C176.918 92.589 178.397 93.66 180.233 94.476C182.171 95.19 184.313 95.547 186.659 95.547C189.209 95.547 191.249 95.241 192.779 94.629C194.411 93.915 195.635 92.997 196.451 91.875C197.267 90.753 197.675 89.58 197.675 88.356C197.675 86.418 197.063 84.939 195.839 83.919C194.717 82.899 193.034 82.083 190.79 81.471C188.546 80.757 185.843 80.094 182.681 79.482C179.009 78.666 175.337 77.748 171.665 76.728C168.095 75.606 164.882 74.229 162.026 72.597C159.272 70.965 157.028 68.874 155.294 66.324C153.662 63.672 152.846 60.459 152.846 56.685C152.846 52.095 154.121 47.964 156.671 44.292C159.221 40.518 162.893 37.56 167.687 35.418C172.481 33.174 178.295 32.052 185.129 32.052C194.819 32.052 202.418 34.194 207.926 38.478C213.434 42.762 216.698 48.525 217.718 55.767H196.298C195.686 53.727 194.411 52.197 192.473 51.177C190.535 50.055 188.087 49.494 185.129 49.494C181.763 49.494 179.213 50.055 177.479 51.177C175.745 52.299 174.878 53.778 174.878 55.614C174.878 56.838 175.439 57.96 176.561 58.98C177.785 59.898 179.519 60.714 181.763 61.428C184.007 62.142 186.761 62.856 190.025 63.57C196.247 64.896 201.602 66.324 206.09 67.854C210.68 69.384 214.25 71.628 216.8 74.586C219.35 77.442 220.574 81.624 220.472 87.132C220.574 92.13 219.248 96.567 216.494 100.443C213.842 104.319 210.017 107.379 205.019 109.623C200.021 111.765 194.054 112.836 187.118 112.836ZM251.313 111L223.314 33.888H247.488L265.389 89.427L283.29 33.888H307.158L279.312 111H251.313ZM349.801 112.836C342.355 112.836 335.674 111.102 329.758 107.634C323.842 104.166 319.15 99.423 315.682 93.405C312.214 87.285 310.48 80.349 310.48 72.597C310.48 64.641 312.214 57.654 315.682 51.636C319.15 45.516 323.842 40.722 329.758 37.254C335.776 33.786 342.457 32.052 349.801 32.052C357.349 32.052 364.081 33.786 369.997 37.254C375.913 40.722 380.605 45.516 384.073 51.636C387.541 57.654 389.275 64.59 389.275 72.444C389.275 80.298 387.541 87.285 384.073 93.405C380.605 99.423 375.913 104.166 369.997 107.634C364.081 111.102 357.349 112.836 349.801 112.836ZM349.801 92.946C352.861 92.946 355.564 92.181 357.91 90.651C360.358 89.121 362.296 86.826 363.724 83.766C365.152 80.706 365.866 76.932 365.866 72.444C365.866 67.956 365.152 64.182 363.724 61.122C362.296 58.062 360.409 55.767 358.063 54.237C355.717 52.707 353.014 51.942 349.954 51.942C346.894 51.942 344.14 52.707 341.692 54.237C339.346 55.767 337.459 58.062 336.031 61.122C334.603 64.182 333.889 67.956 333.889 72.444C333.889 76.932 334.603 80.706 336.031 83.766C337.459 86.826 339.346 89.121 341.692 90.651C344.14 92.181 346.843 92.946 349.801 92.946ZM436.966 111C431.356 111 426.409 110.133 422.125 108.399C417.841 106.563 414.526 103.605 412.18 99.525C409.834 95.445 408.661 89.886 408.661 82.848V53.013H395.503V33.888H408.661L411.109 12.162H431.611V33.888H451.348V53.013H431.611V83.154C431.611 86.214 432.274 88.407 433.6 89.733C435.028 90.957 437.425 91.569 440.791 91.569H451.348V111H436.966ZM498.061 112.836C490.819 112.836 484.546 111.714 479.242 109.47C474.04 107.124 469.909 103.962 466.849 99.984C463.891 96.006 462.208 91.518 461.8 86.52H484.597C485.005 88.254 485.719 89.835 486.739 91.263C487.861 92.589 489.34 93.66 491.176 94.476C493.114 95.19 495.256 95.547 497.602 95.547C500.152 95.547 502.192 95.241 503.722 94.629C505.354 93.915 506.578 92.997 507.394 91.875C508.21 90.753 508.618 89.58 508.618 88.356C508.618 86.418 508.006 84.939 506.782 83.919C505.66 82.899 503.977 82.083 501.733 81.471C499.489 80.757 496.786 80.094 493.624 79.482C489.952 78.666 486.28 77.748 482.608 76.728C479.038 75.606 475.825 74.229 472.969 72.597C470.215 70.965 467.971 68.874 466.237 66.324C464.605 63.672 463.789 60.459 463.789 56.685C463.789 52.095 465.064 47.964 467.614 44.292C470.164 40.518 473.836 37.56 478.63 35.418C483.424 33.174 489.238 32.052 496.072 32.052C505.762 32.052 513.361 34.194 518.869 38.478C524.377 42.762 527.641 48.525 528.661 55.767H507.241C506.629 53.727 505.354 52.197 503.416 51.177C501.478 50.055 499.03 49.494 496.072 49.494C492.706 49.494 490.156 50.055 488.422 51.177C486.688 52.299 485.821 53.778 485.821 55.614C485.821 56.838 486.382 57.96 487.504 58.98C488.728 59.898 490.462 60.714 492.706 61.428C494.95 62.142 497.704 62.856 500.968 63.57C507.19 64.896 512.545 66.324 517.033 67.854C521.623 69.384 525.193 71.628 527.743 74.586C530.293 77.442 531.517 81.624 531.415 87.132C531.517 92.13 530.191 96.567 527.437 100.443C524.785 104.319 520.96 107.379 515.962 109.623C510.964 111.765 504.997 112.836 498.061 112.836ZM571.813 112.836C565.387 112.836 560.032 111.816 555.748 109.776C551.566 107.736 548.455 104.982 546.415 101.514C544.477 97.944 543.508 94.017 543.508 89.733C543.508 85.143 544.63 81.114 546.874 77.646C549.22 74.076 552.841 71.271 557.737 69.231C562.633 67.089 568.804 66.018 576.25 66.018H594.916C594.916 62.55 594.457 59.694 593.539 57.45C592.723 55.206 591.346 53.523 589.408 52.401C587.47 51.279 584.818 50.718 581.452 50.718C577.882 50.718 574.873 51.432 572.425 52.86C569.977 54.288 568.447 56.532 567.835 59.592H545.803C546.313 54.084 548.098 49.29 551.158 45.21C554.32 41.13 558.502 37.917 563.704 35.571C568.906 33.225 574.873 32.052 581.605 32.052C588.949 32.052 595.324 33.276 600.73 35.724C606.136 38.07 610.318 41.538 613.276 46.128C616.336 50.718 617.866 56.43 617.866 63.264V111H598.741L595.987 99.831C594.865 101.769 593.539 103.554 592.009 105.186C590.479 106.716 588.694 108.093 586.654 109.317C584.614 110.439 582.37 111.306 579.922 111.918C577.474 112.53 574.771 112.836 571.813 112.836ZM577.474 95.394C579.922 95.394 582.064 94.986 583.9 94.17C585.736 93.354 587.317 92.232 588.643 90.804C589.969 89.376 591.04 87.744 591.856 85.908C592.774 83.97 593.437 81.879 593.845 79.635V79.482H579.004C576.454 79.482 574.312 79.839 572.578 80.553C570.946 81.165 569.722 82.083 568.906 83.307C568.09 84.531 567.682 85.959 567.682 87.591C567.682 89.325 568.09 90.804 568.906 92.028C569.824 93.15 570.997 94.017 572.425 94.629C573.955 95.139 575.638 95.394 577.474 95.394ZM651.982 111L623.983 33.888H648.157L666.058 89.427L683.959 33.888H707.827L679.981 111H651.982ZM745.731 111V94.017C751.953 88.917 758.073 83.868 764.091 78.87C770.211 73.872 775.668 68.925 780.462 64.029C785.358 59.031 789.234 54.186 792.09 49.494C794.946 44.7 796.374 40.11 796.374 35.724C796.374 33.174 795.864 30.828 794.844 28.686C793.926 26.442 792.447 24.708 790.407 23.484C788.469 22.158 785.868 21.495 782.604 21.495C779.442 21.495 776.739 22.209 774.495 23.637C772.251 25.065 770.568 27.054 769.446 29.604C768.324 32.052 767.763 34.908 767.763 38.172H745.578C745.884 30.012 747.72 23.229 751.086 17.823C754.452 12.417 758.94 8.43899 764.55 5.88899C770.262 3.339 776.535 2.064 783.369 2.064C791.325 2.064 797.955 3.543 803.259 6.501C808.563 9.357 812.541 13.233 815.193 18.129C817.947 22.923 819.324 28.278 819.324 34.194C819.324 38.886 818.508 43.425 816.876 47.811C815.244 52.095 813 56.277 810.144 60.357C807.288 64.335 804.024 68.211 800.352 71.985C796.782 75.657 793.008 79.227 789.03 82.695C785.052 86.061 781.125 89.274 777.249 92.334H821.466V111H745.731ZM834.184 111V3.89999H857.134V44.445L894.16 3.89999H922.312L882.991 46.281L923.689 111H895.537L866.62 64.029L857.134 74.28V111H834.184ZM931.159 111V94.017C937.381 88.917 943.501 83.868 949.519 78.87C955.639 73.872 961.096 68.925 965.89 64.029C970.786 59.031 974.662 54.186 977.518 49.494C980.374 44.7 981.802 40.11 981.802 35.724C981.802 33.174 981.292 30.828 980.272 28.686C979.354 26.442 977.875 24.708 975.835 23.484C973.897 22.158 971.296 21.495 968.032 21.495C964.87 21.495 962.167 22.209 959.923 23.637C957.679 25.065 955.996 27.054 954.874 29.604C953.752 32.052 953.191 34.908 953.191 38.172H931.006C931.312 30.012 933.148 23.229 936.514 17.823C939.88 12.417 944.368 8.43899 949.978 5.88899C955.69 3.339 961.963 2.064 968.797 2.064C976.753 2.064 983.383 3.543 988.687 6.501C993.991 9.357 997.969 13.233 1000.62 18.129C1003.38 22.923 1004.75 28.278 1004.75 34.194C1004.75 38.886 1003.94 43.425 1002.3 47.811C1000.67 52.095 998.428 56.277 995.572 60.357C992.716 64.335 989.452 68.211 985.78 71.985C982.21 75.657 978.436 79.227 974.458 82.695C970.48 86.061 966.553 89.274 962.677 92.334H1006.89V111H931.159ZM1058.63 112.836C1050.57 112.836 1043.68 111.459 1037.97 108.705C1032.26 105.849 1027.82 102.024 1024.66 97.23C1021.5 92.334 1019.71 86.826 1019.31 80.706H1041.64C1042.26 84.174 1044.09 87.183 1047.15 89.733C1050.31 92.181 1054.14 93.405 1058.63 93.405C1061.89 93.405 1064.75 92.589 1067.2 90.957C1069.75 89.223 1071.68 86.928 1073.01 84.072C1074.44 81.114 1075.15 77.85 1075.15 74.28C1075.15 70.506 1074.44 67.293 1073.01 64.641C1071.58 61.887 1069.64 59.847 1067.2 58.521C1064.75 57.093 1061.94 56.379 1058.78 56.379C1055.01 56.379 1051.69 57.348 1048.84 59.286C1045.98 61.122 1043.94 63.366 1042.72 66.018H1020.53L1029.4 3.89999H1090.6V23.943H1046.39L1042.41 45.057C1044.55 42.915 1047.41 41.181 1050.98 39.855C1054.65 38.529 1058.68 37.866 1063.06 37.866C1068.98 37.866 1074.08 38.886 1078.36 40.926C1082.65 42.864 1086.22 45.567 1089.07 49.035C1091.93 52.503 1094.02 56.379 1095.35 60.663C1096.67 64.947 1097.34 69.384 1097.34 73.974C1097.34 79.788 1096.37 85.092 1094.43 89.886C1092.49 94.578 1089.79 98.658 1086.32 102.126C1082.85 105.492 1078.72 108.144 1073.93 110.082C1069.24 111.918 1064.14 112.836 1058.63 112.836Z" fill="#16161F"/>
</svg>
