<svg width="116" height="18" viewBox="0 0 116 18" fill="none" xmlns="http://www.w3.org/2000/svg">
<path d="M6.51609 17.5L0.468094 0.699999H4.30809L8.74809 13.852L13.2361 0.699999H17.0521L10.9801 17.5H6.51609ZM18.4872 17.5V5.404H22.0872V17.5H18.4872ZM20.2872 4.012C19.6472 4.012 19.1272 3.828 18.7272 3.46C18.3272 3.092 18.1272 2.628 18.1272 2.068C18.1272 1.492 18.3272 1.02 18.7272 0.651999C19.1272 0.283999 19.6472 0.0999994 20.2872 0.0999994C20.9432 0.0999994 21.4712 0.283999 21.8712 0.651999C22.2872 1.02 22.4952 1.492 22.4952 2.068C22.4952 2.628 22.2872 3.092 21.8712 3.46C21.4712 3.828 20.9432 4.012 20.2872 4.012ZM29.8195 17.788C28.6835 17.788 27.6995 17.612 26.8675 17.26C26.0515 16.892 25.4035 16.396 24.9235 15.772C24.4595 15.148 24.1955 14.444 24.1315 13.66H27.7075C27.7715 13.932 27.8835 14.18 28.0435 14.404C28.2195 14.612 28.4515 14.78 28.7395 14.908C29.0435 15.02 29.3795 15.076 29.7475 15.076C30.1475 15.076 30.4675 15.028 30.7075 14.932C30.9635 14.82 31.1555 14.676 31.2835 14.5C31.4115 14.324 31.4755 14.14 31.4755 13.948C31.4755 13.644 31.3795 13.412 31.1875 13.252C31.0115 13.092 30.7475 12.964 30.3955 12.868C30.0435 12.756 29.6195 12.652 29.1235 12.556C28.5475 12.428 27.9715 12.284 27.3955 12.124C26.8355 11.948 26.3315 11.732 25.8835 11.476C25.4515 11.22 25.0995 10.892 24.8275 10.492C24.5715 10.076 24.4435 9.572 24.4435 8.98C24.4435 8.26 24.6435 7.612 25.0435 7.036C25.4435 6.444 26.0195 5.98 26.7715 5.644C27.5235 5.292 28.4355 5.116 29.5075 5.116C31.0275 5.116 32.2195 5.452 33.0835 6.124C33.9475 6.796 34.4595 7.7 34.6195 8.836H31.2595C31.1635 8.516 30.9635 8.276 30.6595 8.116C30.3555 7.94 29.9715 7.852 29.5075 7.852C28.9795 7.852 28.5795 7.94 28.3075 8.116C28.0355 8.292 27.8995 8.524 27.8995 8.812C27.8995 9.004 27.9875 9.18 28.1635 9.34C28.3555 9.484 28.6275 9.612 28.9795 9.724C29.3315 9.836 29.7635 9.948 30.2755 10.06C31.2515 10.268 32.0915 10.492 32.7955 10.732C33.5155 10.972 34.0755 11.324 34.4755 11.788C34.8755 12.236 35.0675 12.892 35.0515 13.756C35.0675 14.54 34.8595 15.236 34.4275 15.844C34.0115 16.452 33.4115 16.932 32.6275 17.284C31.8435 17.62 30.9075 17.788 29.8195 17.788ZM39.8894 17.5L35.4974 5.404H39.2894L42.0974 14.116L44.9054 5.404H48.6494L44.2814 17.5H39.8894ZM55.3385 17.788C54.1705 17.788 53.1225 17.516 52.1945 16.972C51.2665 16.428 50.5305 15.684 49.9865 14.74C49.4425 13.78 49.1705 12.692 49.1705 11.476C49.1705 10.228 49.4425 9.132 49.9865 8.188C50.5305 7.228 51.2665 6.476 52.1945 5.932C53.1385 5.388 54.1865 5.116 55.3385 5.116C56.5225 5.116 57.5785 5.388 58.5065 5.932C59.4345 6.476 60.1705 7.228 60.7145 8.188C61.2585 9.132 61.5305 10.22 61.5305 11.452C61.5305 12.684 61.2585 13.78 60.7145 14.74C60.1705 15.684 59.4345 16.428 58.5065 16.972C57.5785 17.516 56.5225 17.788 55.3385 17.788ZM55.3385 14.668C55.8185 14.668 56.2425 14.548 56.6105 14.308C56.9945 14.068 57.2985 13.708 57.5225 13.228C57.7465 12.748 57.8585 12.156 57.8585 11.452C57.8585 10.748 57.7465 10.156 57.5225 9.676C57.2985 9.196 57.0025 8.836 56.6345 8.596C56.2665 8.356 55.8425 8.236 55.3625 8.236C54.8825 8.236 54.4505 8.356 54.0665 8.596C53.6985 8.836 53.4025 9.196 53.1785 9.676C52.9545 10.156 52.8425 10.748 52.8425 11.452C52.8425 12.156 52.9545 12.748 53.1785 13.228C53.4025 13.708 53.6985 14.068 54.0665 14.308C54.4505 14.548 54.8745 14.668 55.3385 14.668ZM69.0113 17.5C68.1313 17.5 67.3553 17.364 66.6833 17.092C66.0113 16.804 65.4913 16.34 65.1233 15.7C64.7553 15.06 64.5713 14.188 64.5713 13.084V8.404H62.5073V5.404H64.5713L64.9553 1.996H68.1713V5.404H71.2673V8.404H68.1713V13.132C68.1713 13.612 68.2753 13.956 68.4833 14.164C68.7073 14.356 69.0833 14.452 69.6113 14.452H71.2673V17.5H69.0113ZM78.5948 17.788C77.4588 17.788 76.4748 17.612 75.6428 17.26C74.8268 16.892 74.1788 16.396 73.6988 15.772C73.2348 15.148 72.9708 14.444 72.9068 13.66H76.4828C76.5468 13.932 76.6588 14.18 76.8188 14.404C76.9948 14.612 77.2268 14.78 77.5148 14.908C77.8188 15.02 78.1548 15.076 78.5228 15.076C78.9228 15.076 79.2428 15.028 79.4828 14.932C79.7388 14.82 79.9308 14.676 80.0588 14.5C80.1868 14.324 80.2508 14.14 80.2508 13.948C80.2508 13.644 80.1548 13.412 79.9628 13.252C79.7868 13.092 79.5228 12.964 79.1708 12.868C78.8188 12.756 78.3948 12.652 77.8988 12.556C77.3228 12.428 76.7468 12.284 76.1708 12.124C75.6108 11.948 75.1068 11.732 74.6588 11.476C74.2268 11.22 73.8748 10.892 73.6028 10.492C73.3468 10.076 73.2188 9.572 73.2188 8.98C73.2188 8.26 73.4188 7.612 73.8188 7.036C74.2188 6.444 74.7948 5.98 75.5468 5.644C76.2988 5.292 77.2108 5.116 78.2828 5.116C79.8028 5.116 80.9948 5.452 81.8588 6.124C82.7228 6.796 83.2348 7.7 83.3948 8.836H80.0348C79.9388 8.516 79.7388 8.276 79.4348 8.116C79.1308 7.94 78.7468 7.852 78.2828 7.852C77.7548 7.852 77.3548 7.94 77.0828 8.116C76.8108 8.292 76.6748 8.524 76.6748 8.812C76.6748 9.004 76.7628 9.18 76.9388 9.34C77.1308 9.484 77.4028 9.612 77.7548 9.724C78.1068 9.836 78.5388 9.948 79.0508 10.06C80.0268 10.268 80.8668 10.492 81.5708 10.732C82.2908 10.972 82.8508 11.324 83.2508 11.788C83.6508 12.236 83.8428 12.892 83.8268 13.756C83.8428 14.54 83.6348 15.236 83.2028 15.844C82.7868 16.452 82.1868 16.932 81.4028 17.284C80.6188 17.62 79.6828 17.788 78.5948 17.788ZM90.1638 17.788C89.1558 17.788 88.3158 17.628 87.6438 17.308C86.9878 16.988 86.4998 16.556 86.1798 16.012C85.8758 15.452 85.7238 14.836 85.7238 14.164C85.7238 13.444 85.8998 12.812 86.2518 12.268C86.6198 11.708 87.1878 11.268 87.9558 10.948C88.7238 10.612 89.6918 10.444 90.8598 10.444H93.7878C93.7878 9.9 93.7158 9.452 93.5718 9.1C93.4438 8.748 93.2278 8.484 92.9238 8.308C92.6198 8.132 92.2038 8.044 91.6758 8.044C91.1158 8.044 90.6438 8.156 90.2598 8.38C89.8758 8.604 89.6358 8.956 89.5398 9.436H86.0838C86.1638 8.572 86.4438 7.82 86.9238 7.18C87.4198 6.54 88.0758 6.036 88.8918 5.668C89.7078 5.3 90.6438 5.116 91.6998 5.116C92.8518 5.116 93.8518 5.308 94.6998 5.692C95.5478 6.06 96.2038 6.604 96.6678 7.324C97.1478 8.044 97.3878 8.94 97.3878 10.012V17.5H94.3878L93.9558 15.748C93.7798 16.052 93.5718 16.332 93.3318 16.588C93.0918 16.828 92.8118 17.044 92.4918 17.236C92.1718 17.412 91.8198 17.548 91.4358 17.644C91.0518 17.74 90.6278 17.788 90.1638 17.788ZM91.0518 15.052C91.4358 15.052 91.7718 14.988 92.0598 14.86C92.3478 14.732 92.5958 14.556 92.8038 14.332C93.0118 14.108 93.1798 13.852 93.3078 13.564C93.4518 13.26 93.5558 12.932 93.6198 12.58V12.556H91.2918C90.8918 12.556 90.5558 12.612 90.2838 12.724C90.0278 12.82 89.8358 12.964 89.7078 13.156C89.5798 13.348 89.5158 13.572 89.5158 13.828C89.5158 14.1 89.5798 14.332 89.7078 14.524C89.8518 14.7 90.0358 14.836 90.2598 14.932C90.4998 15.012 90.7638 15.052 91.0518 15.052ZM102.739 17.5L98.3474 5.404H102.139L104.947 14.116L107.755 5.404H111.499L107.131 17.5H102.739Z" fill="#F5F5F5"/>
<path d="M113.662 17.62C113.006 17.62 112.47 17.428 112.054 17.044C111.654 16.644 111.454 16.164 111.454 15.604C111.454 15.028 111.654 14.548 112.054 14.164C112.47 13.764 113.006 13.564 113.662 13.564C114.302 13.564 114.822 13.764 115.222 14.164C115.622 14.548 115.822 15.028 115.822 15.604C115.822 16.164 115.622 16.644 115.222 17.044C114.822 17.428 114.302 17.62 113.662 17.62Z" fill="#FE6715"/>
</svg>
